# xmcd
#
# Track frame offsets:
#	150
#	2532
#	28832
#	55325
#
# Disc length: 1085 seconds
#
# Revision: 1
# Processed by: cddbd v1.4b41PL1 Copyright (c) Steve Scherf et al.
# Submitted via: audiograbber 1.80
#
DISCID=28043b04
DTITLE=Sezen Aksu - Sari Odalar
DYEAR=1900
DGENRE=
TTITLE0=Trompet Intro
TTITLE1=Full Version
TTITLE2=Trip Mix
TTITLE3=Enstrumantal
EXTD=
EXTT0=
EXTT1=
EXTT2=
EXTT3=
PLAYORDER=
